<svg id="Layer_1" data-name="Layer 1" xmlns="http://www.w3.org/2000/svg" xmlns:xlink="http://www.w3.org/1999/xlink" viewBox="0 0 332.46 152.2"><defs><style>.cls-1{fill:url(#linear-gradient);}.cls-2{fill:#0dcaf0;}.cls-3{fill:url(#linear-gradient-2);}.cls-4{fill:none;}.cls-5{fill:#0dcaf0;}.cls-6{fill:#0dcaf0;}.cls-7{fill:url(#linear-gradient-4);}.cls-8{fill:url(#linear-gradient-5);}.cls-9{fill:url(#linear-gradient-6);}.cls-10{fill:url(#linear-gradient-7);}.cls-11{fill:url(#linear-gradient-8);}.cls-12{fill:url(#linear-gradient-9);}.cls-13{fill:url(#linear-gradient-10);}.cls-14{fill:url(#linear-gradient-11);}.cls-15{fill:url(#linear-gradient-12);}.cls-16{fill:url(#linear-gradient-13);}.cls-17{fill:url(#linear-gradient-14);}.cls-18{fill:url(#linear-gradient-15);}.cls-19{fill:#0a5054;}.cls-20{fill:#0dcaf0;}.cls-21{fill:#070404;}</style><linearGradient id="linear-gradient" x1="6.39" y1="67.26" x2="64.97" y2="67.26" gradientUnits="userSpaceOnUse"><stop offset="0" stop-color="#fff"/><stop offset="0.3"/></linearGradient><linearGradient id="linear-gradient-2" x1="46.14" y1="25.2" x2="111.45" y2="25.2" gradientUnits="userSpaceOnUse"><stop offset="0" stop-color="#fff"/><stop offset="0.41"/></linearGradient><linearGradient id="linear-gradient-3" x1="187.82" y1="51.71" x2="257.58" y2="51.71" xlink:href="#linear-gradient-2"/><linearGradient id="linear-gradient-4" x1="310.29" y1="170.86" x2="314.28" y2="170.86" xlink:href="#linear-gradient-2"/><linearGradient id="linear-gradient-5" x1="305.08" y1="170.86" x2="309.08" y2="170.86" xlink:href="#linear-gradient-2"/><linearGradient id="linear-gradient-6" x1="208.04" y1="51.16" x2="212.03" y2="51.16" xlink:href="#linear-gradient-2"/><linearGradient id="linear-gradient-7" x1="213.24" y1="51.16" x2="217.24" y2="51.16" xlink:href="#linear-gradient-2"/><linearGradient id="linear-gradient-8" x1="175" y1="150.66" x2="179.21" y2="150.66" xlink:href="#linear-gradient-2"/><linearGradient id="linear-gradient-9" x1="169.51" y1="150.66" x2="173.72" y2="150.66" xlink:href="#linear-gradient-2"/><linearGradient id="linear-gradient-10" x1="72.47" y1="31.46" x2="76.68" y2="31.46" xlink:href="#linear-gradient-2"/><linearGradient id="linear-gradient-11" x1="77.96" y1="31.46" x2="82.17" y2="31.46" xlink:href="#linear-gradient-2"/><linearGradient id="linear-gradient-12" x1="136.07" y1="187.52" x2="140.29" y2="187.52" xlink:href="#linear-gradient"/><linearGradient id="linear-gradient-13" x1="130.58" y1="187.52" x2="134.79" y2="187.52" xlink:href="#linear-gradient"/><linearGradient id="linear-gradient-14" x1="33.54" y1="68.31" x2="37.75" y2="68.31" xlink:href="#linear-gradient"/><linearGradient id="linear-gradient-15" x1="39.03" y1="68.31" x2="43.24" y2="68.31" xlink:href="#linear-gradient"/></defs><polygon class="cls-1" points="9.89 83.26 35.11 47.26 36.93 44.66 64.97 67.51 36.93 48.21 15.9 80.72 15.9 89.86 6.39 89.86 9.89 83.26"/><polygon class="cls-2" points="37.8 44.41 81.24 81.34 114.39 81.34 90.91 57.52 37.8 44.41"/><polygon class="cls-3" points="46.14 42.09 78.23 9.99 111.45 43.21 78.8 7.18 46.14 42.09"/><path class="cls-4" d="M277.29,194.07h-39S261.25,182.44,277.29,194.07Z" transform="translate(-97.04 -128.61)"/><path class="cls-5" d="M345,193.65l-36-39-31.71,39.42c-16-11.63-39,0-39,0l-60.43-61.71-34.72,36.43,34.72-39.86,57.43,24.43,6.42-5.57L243,166.22l4.71-.86V155.5L309,147.79Z" transform="translate(-97.04 -128.61)"/><path class="cls-5" d="M344,193.33l-36-39-31.71,39.42c-16-11.63-39,0-39,0L176.9,132l-34.72,36.43,34.72-39.86L234.33,153l6.42-5.57L242,165.9l4.71-.86v-9.86L308,147.47Z" transform="translate(-97.04 -128.61)"/><polygon class="cls-6" points="187.82 57.59 211.31 28.58 257.58 74.84 252.44 73.74 249.87 67.5 211.31 32.25 187.82 57.59"/><path class="cls-7" d="M310.29,175h4v-3.79a4.6,4.6,0,0,0-4-4.56Z" transform="translate(-97.04 -128.61)"/><path class="cls-8" d="M309.08,175v-8.35a4.6,4.6,0,0,0-4,4.56V175Z" transform="translate(-97.04 -128.61)"/><rect class="cls-9" x="208.04" y="47.11" width="3.99" height="8.11"/><rect class="cls-10" x="213.24" y="47.11" width="3.99" height="8.11"/><path class="cls-11" d="M175,155.07h4.21v-4a4.84,4.84,0,0,0-4.21-4.8Z" transform="translate(-97.04 -128.61)"/><path class="cls-12" d="M173.72,155.07v-8.81a4.85,4.85,0,0,0-4.21,4.8v4Z" transform="translate(-97.04 -128.61)"/><rect class="cls-13" x="72.47" y="27.18" width="4.21" height="8.56"/><rect class="cls-14" x="77.96" y="27.18" width="4.21" height="8.56"/><path class="cls-15" d="M136.07,191.92h4.22v-4a4.86,4.86,0,0,0-4.22-4.81Z" transform="translate(-97.04 -128.61)"/><path class="cls-16" d="M134.79,191.92v-8.81a4.86,4.86,0,0,0-4.21,4.81v4Z" transform="translate(-97.04 -128.61)"/><rect class="cls-17" x="33.54" y="64.04" width="4.21" height="8.56"/><rect class="cls-18" x="39.03" y="64.04" width="4.21" height="8.56"/><path class="cls-19" d="M37.86,290" transform="translate(-97.04 -128.61)"/><path class="cls-20" d="M97.71,223.64C124,230.5,152.33,236.16,179,231.5c15.76-2.75,26.94-4.9,38.19-8.95a59,59,0,0,0,5.39-2.41c5.69-2.89,13.84-4.76,20.42-6.64C298.24,197.72,359.06,209,404.63,244c7.81,6,16,11.82,21.93,19.81a14.23,14.23,0,0,1,2.81,5.58c1.39,7.17-8.84,10.06-14,11.06-11.82,2.3-21.3-5.39-28.48-13.87-14.14-16.71-28.75-30.28-49.54-38.15-26-9.85-54.74-11-82-6.44-27.75,4.69-54.7,16.78-83.1,16.88-25.34.08-51.23-4.93-75.22-13.7" transform="translate(-97.04 -128.61)"/><path class="cls-20" d="M187.29,239.07c25,6.1,51.72-8.12,76.46-11.95,20-3.09,41.11-3.65,60.76,1.83,19.46,5.43,41.07,19,46.25,39.92.73,2.94.45,6.4-1.76,8.47a7.46,7.46,0,0,1-4.42,1.84c-5.34.49-10.12-3.34-13.45-7.54-18-22.77-40.81-37.69-70.77-38.09-31.25-.42-62,12.37-93.07,5.52" transform="translate(-97.04 -128.61)"/><path class="cls-4" d="M313.29,203.71c16,11.63,0,.3,0,.3" transform="translate(-97.04 -128.61)"/><path class="cls-21" d="M71.57,66.43" transform="translate(-97.04 -128.61)"/></svg>